<svg width="48" height="48" viewBox="0 0 48 48" fill="none" xmlns="http://www.w3.org/2000/svg">
<circle cx="24" cy="24" r="24" fill="#BC0063"/>
<path d="M30.3737 26.3071C31.2181 26.3838 31.5898 27.4105 30.9903 28.0101L26 33.0003C22.6667 33.0003 19.5999 33.086 17.7714 31.2574C15.9237 29.4287 14.9999 26.8529 14.9999 23.5298C14.9999 20.1871 15.9237 17.5916 17.7714 15.7433C19.5999 13.9147 22.1667 13 25.5 13L30.8665 17.9834C31.499 18.5708 31.1402 19.6299 30.2808 19.7117L23.0982 20.3957C22.415 20.4608 21.8135 20.8733 21.5065 21.4872V21.4872C21.1773 22.1456 21.0651 22.8915 21.1862 23.6177L21.2121 23.7733C21.3817 24.7907 22.2164 25.5655 23.2436 25.6589L30.3737 26.3071Z" fill="url(#paint0_linear_84_50)"/>
<defs>
<linearGradient id="paint0_linear_84_50" x1="35.6044" y1="36.9043" x2="17.6044" y2="15.9043" gradientUnits="userSpaceOnUse">
<stop stop-color="white" stop-opacity="0.7"/>
<stop offset="1" stop-color="white"/>
</linearGradient>
</defs>
</svg>
